<?xml version="1.0" standalone="no"?>
<!DOCTYPE svg PUBLIC "-//W3C//DTD SVG 20010904//EN"
 "http://www.w3.org/TR/2001/REC-SVG-20010904/DTD/svg10.dtd">
<svg version="1.0" xmlns="http://www.w3.org/2000/svg"
 width="500.000000pt" height="500.000000pt" viewBox="0 0 500.000000 500.000000"
 preserveAspectRatio="xMidYMid meet">
<metadata>
Created by potrace 1.14, written by Peter Selinger 2001-2017
</metadata>
<g transform="translate(0.000000,500.000000) scale(0.100000,-0.100000)"
fill="#000000" stroke="none">
<path d="M0 2500 l0 -2500 2500 0 2500 0 0 2500 0 2500 -2500 0 -2500 0 0
-2500z m1938 1208 l2 -438 -341 0 -342 0 7 432 c4 237 9 435 12 440 3 4 152 7
332 6 l327 -3 3 -437z m1773 423 c21 -17 22 -21 9 -37 -18 -22 -517 -618 -790
-944 -109 -129 -277 -329 -374 -445 -97 -115 -174 -215 -171 -222 2 -7 123
-153 268 -325 299 -356 848 -1009 985 -1173 50 -60 92 -113 92 -117 0 -5 -193
-8 -429 -8 l-430 0 -163 193 c-90 107 -287 342 -438 523 -151 181 -294 348
-318 372 -24 24 -138 156 -253 294 -210 250 -210 251 -191 272 10 11 103 122
207 246 104 124 208 243 231 265 24 22 235 270 470 550 234 281 439 525 455
543 l29 32 394 0 c371 0 395 -1 417 -19z m-1773 -2843 l2 -428 -333 0 -334 0
-6 233 c-9 301 -9 612 0 620 4 4 155 6 337 5 l331 -3 3 -427z"/>
</g>
</svg>
